<svg xmlns="http://www.w3.org/2000/svg" xmlns:xlink="http://www.w3.org/1999/xlink" width="150" height="150" viewBox="0 0 150 150">
  <defs>
    <clipPath id="clip-path">
      <rect id="Retângulo_27" data-name="Retângulo 27" width="97.294" height="97.136" fill="#fff"/>
    </clipPath>
  </defs>
  <g id="Grupo_88" data-name="Grupo 88" transform="translate(710 378)">
    <rect id="Retângulo_66" data-name="Retângulo 66" width="150" height="150" rx="20" transform="translate(-710 -378)" fill="#7f2ccb"/>
    <g id="Grupo_87" data-name="Grupo 87" transform="translate(-1100.852 -774)">
      <path id="Subtração_1" data-name="Subtração 1" d="M0,0H0L11.951,22.569c-.008,0-.1.028-.248.074-3.194.973-8.551,2.617-8.539,2.7,0,0,0,0,.012,0,.308,0,10.8,14.466,15.3,20.686a2.956,2.956,0,0,1,.418-.5c1.322-1.291,2.653-2.616,3.941-3.9,1.89-1.881,3.842-3.823,5.8-5.694l-9.558-7.946,8.138-3.279Z" transform="translate(403.852 524.072) rotate(-90)" fill="#fff"/>
      <g id="Grupo_20" data-name="Grupo 20" transform="translate(430.936 418)">
        <g id="Grupo_19" data-name="Grupo 19" transform="translate(0 0)" clip-path="url(#clip-path)">
          <path id="Caminho_3" data-name="Caminho 3" d="M95.5,0c-.73,2.866-1.328,5.272-1.959,7.671-1.122,4.266-2.277,8.522-3.379,12.794a6.3,6.3,0,0,0-.175,2.1c.563,6.1-1.011,11.531-5.32,15.93-7.142,7.29-14.4,14.47-21.66,21.638-.948.936-1.088,1.542-.11,2.465,1.474,1.393,2.894,2.844,4.306,4.3a7.206,7.206,0,0,1,.119,10.444Q61.58,83.25,55.681,89a7.151,7.151,0,0,1-9.9.161c-1.6-1.419-3.054-3.01-4.528-4.567A8.1,8.1,0,0,0,29.6,84.069c-3.238,2.994-7.265,2.88-10.443-.157q-3.948-3.772-7.719-7.727a7.329,7.329,0,0,1-.222-10.221c3.422-4.076,3.276-7.972-.44-11.736q-2.253-2.281-4.505-4.566a7.116,7.116,0,0,1-.014-9.76q5.892-6.132,12.031-12.023a7.1,7.1,0,0,1,10.026.129c1.43,1.354,2.871,2.709,4.166,4.188,1.119,1.282,1.881,1.083,3-.045C42.4,25.145,49.381,18.2,56.345,11.238,59.812,7.771,63.972,5.4,68.873,5.5c5.011.1,9.665-1.127,14.378-2.381C86.536,2.25,89.816,1.364,93.1.5,93.72.334,94.355.235,95.5,0M70.081,39.114a13.942,13.942,0,0,0,13.988-13.8,13.917,13.917,0,1,0-27.832.052A13.94,13.94,0,0,0,70.081,39.114m-19.034-2.8a8.148,8.148,0,0,0-8.412,8.115c.13,4.782,3.187,8.205,8.164,8.3a8.21,8.21,0,1,0,.248-16.418M24.49,62.717A8.218,8.218,0,1,0,32.6,54.424a8.26,8.26,0,0,0-8.113,8.293" transform="translate(1.792 0.001)" fill="#fff"/>
        </g>
      </g>
    </g>
  </g>
</svg>
